<svg xmlns="http://www.w3.org/2000/svg" viewBox="0 0 512 512" width="512" height="512" role="img" aria-label="Pix the cyberpunk owl resting a cybernetic wingtip to its chin in contemplation">
  <!-- Palette aligned to src/styles/_brand.scss:
       ink rgb(0,22,20) · ink-2 rgb(0,46,41) · mint rgb(102,220,200) · mint-strong rgb(0,148,132)
       mint-light rgb(95,237,131) · cream rgb(255,248,237) · sand rgb(253,224,181)
       sand-amber rgb(252,163,38) · bone rgb(232,231,227) · coral rgb(250,92,87) -->
  <defs>
    <radialGradient id="body" cx="46%" cy="32%" r="78%">
      <stop offset="0%"  stop-color="rgb(190,244,231)"/>
      <stop offset="42%" stop-color="rgb(118,224,205)"/>
      <stop offset="78%" stop-color="rgb(58,196,180)"/>
      <stop offset="100%" stop-color="rgb(0,138,123)"/>
    </radialGradient>
    <radialGradient id="disc" cx="50%" cy="42%" r="62%">
      <stop offset="0%" stop-color="rgb(198,246,236)"/>
      <stop offset="70%" stop-color="rgb(150,233,218)" stop-opacity="0.55"/>
      <stop offset="100%" stop-color="rgb(102,220,200)" stop-opacity="0"/>
    </radialGradient>
    <radialGradient id="belly" cx="50%" cy="34%" r="72%">
      <stop offset="0%" stop-color="rgb(255,251,242)"/>
      <stop offset="62%" stop-color="rgb(250,238,209)"/>
      <stop offset="100%" stop-color="rgb(232,205,158)"/>
    </radialGradient>
    <radialGradient id="eyeW" cx="42%" cy="38%" r="68%">
      <stop offset="0%" stop-color="rgb(255,253,247)"/>
      <stop offset="70%" stop-color="rgb(246,238,214)"/>
      <stop offset="100%" stop-color="rgb(226,210,176)"/>
    </radialGradient>
    <radialGradient id="pupil" cx="42%" cy="36%" r="70%">
      <stop offset="0%" stop-color="rgb(28,52,49)"/>
      <stop offset="60%" stop-color="rgb(6,26,23)"/>
      <stop offset="100%" stop-color="rgb(0,16,14)"/>
    </radialGradient>
    <linearGradient id="beakG" x1="0" y1="0" x2="0" y2="1">
      <stop offset="0%" stop-color="rgb(255,206,92)"/>
      <stop offset="45%" stop-color="rgb(252,163,38)"/>
      <stop offset="100%" stop-color="rgb(190,110,16)"/>
    </linearGradient>
    <!-- gunmetal cyber plating with a bright top bevel -->
    <linearGradient id="metal" x1="0" y1="0" x2="0.9" y2="1">
      <stop offset="0%" stop-color="rgb(64,132,122)"/>
      <stop offset="30%" stop-color="rgb(16,74,68)"/>
      <stop offset="70%" stop-color="rgb(0,40,36)"/>
      <stop offset="100%" stop-color="rgb(0,20,18)"/>
    </linearGradient>
    <linearGradient id="feather" x1="0" y1="0" x2="1" y2="1">
      <stop offset="0%" stop-color="rgb(20,84,77)"/>
      <stop offset="55%" stop-color="rgb(0,44,39)"/>
      <stop offset="100%" stop-color="rgb(0,18,16)"/>
    </linearGradient>
    <linearGradient id="ring" x1="0" y1="0" x2="0.7" y2="1">
      <stop offset="0%" stop-color="rgb(255,214,120)"/>
      <stop offset="50%" stop-color="rgb(240,150,30)"/>
      <stop offset="100%" stop-color="rgb(150,84,14)"/>
    </linearGradient>
    <linearGradient id="glass" x1="0" y1="0" x2="0" y2="1">
      <stop offset="0%" stop-color="rgb(120,240,214)" stop-opacity="0.18"/>
      <stop offset="45%" stop-color="rgb(2,26,24)" stop-opacity="0.5"/>
      <stop offset="100%" stop-color="rgb(0,16,15)" stop-opacity="0.62"/>
    </linearGradient>
    <linearGradient id="refl" x1="0" y1="0" x2="1" y2="1">
      <stop offset="0%" stop-color="rgb(255,255,255)" stop-opacity="0.22"/>
      <stop offset="55%" stop-color="rgb(255,255,255)" stop-opacity="0"/>
    </linearGradient>
    <filter id="glow" x="-80%" y="-80%" width="260%" height="260%">
      <feGaussianBlur stdDeviation="2.4" result="b"/>
      <feMerge><feMergeNode in="b"/><feMergeNode in="SourceGraphic"/></feMerge>
    </filter>
    <filter id="soft" x="-60%" y="-60%" width="220%" height="220%">
      <feGaussianBlur stdDeviation="7"/>
    </filter>
  </defs>

  <style>
    #pix { transform-origin: 256px 430px; animation: sway 5.2s ease-in-out infinite; }
    @keyframes sway { 0%,100%{ transform: rotate(-1.6deg) translateY(0) } 50%{ transform: rotate(1.6deg) translateY(-4px) } }

    #jaw { transform-origin: 256px 244px; animation: mutter 3.4s ease-in-out infinite; }
    @keyframes mutter { 0%,70%,100%{ transform: translateY(0) scaleY(1) } 78%,86%{ transform: translateY(2px) scaleY(1.3) } }

    #owing { transform-origin: 140px 258px; animation: flutter 3.8s ease-in-out infinite; }
    @keyframes flutter { 0%,100%{ transform: rotate(0deg) } 50%{ transform: rotate(2.4deg) } }

    #lidL { transform: translateY(0); animation: blink 5.4s ease-in-out infinite; }
    @keyframes blink { 0%,88%,100%{ transform: translateY(0) } 91%,93%{ transform: translateY(128px) } 95%,96%{ transform: translateY(0) } 97%,98.5%{ transform: translateY(128px) } }

    /* HUD */
    #reticle { transform-origin: 312px 186px; animation: spin 16s linear infinite; }
    @keyframes spin { to { transform: rotate(360deg) } }
    #vscan { animation: vscan 2.4s ease-in-out infinite; }
    @keyframes vscan { 0%{ transform: translateY(-42px); opacity:.3 } 50%{ opacity:1 } 100%{ transform: translateY(42px); opacity:.3 } }
    #term { animation: term 5.5s linear infinite; }
    @keyframes term { from{ transform: translateY(0) } to{ transform: translateY(-44px) } }
    #brackets { transform-origin: 312px 186px; animation: lock 1.8s ease-in-out infinite; }
    @keyframes lock { 0%,100%{ opacity:.45; transform: scale(1.06) } 50%{ opacity:1; transform: scale(0.96) } }
    #dataA { animation: flickA 0.9s steps(1) infinite; }
    #dataB { animation: flickB 0.9s steps(1) infinite; }
    @keyframes flickA { 0%,50%{ opacity:1 } 50.01%,100%{ opacity:0 } }
    @keyframes flickB { 0%,50%{ opacity:0 } 50.01%,100%{ opacity:1 } }
    #led { animation: led 1.3s ease-in-out infinite; }
    @keyframes led { 0%,100%{ opacity:.5 } 50%{ opacity:1 } }

    /* contemplative: eyes drift up, claw-tip glows, thought bubbles rise */
    #pupils { animation: ponder 5.2s ease-in-out infinite; }
    @keyframes ponder { 0%,100%{ transform: translate(0,0) } 50%{ transform: translate(3px,-6px) } }
    #leadglow { animation: glowtip 3.2s ease-in-out infinite; }
    @keyframes glowtip { 0%,100%{ opacity:.5 } 50%{ opacity:1 } }
    #conduit { animation: pulseC 2.8s ease-in-out infinite; }
    @keyframes pulseC { 0%,100%{ opacity:.55 } 50%{ opacity:1 } }
    .think { opacity: 0; }
    #t1 { animation: puff 3.6s ease-in-out infinite; }
    #t2 { animation: puff 3.6s ease-in-out infinite; animation-delay:.5s; }
    #t3 { animation: puff 3.6s ease-in-out infinite; animation-delay:1s; }
    @keyframes puff { 0%{ opacity:0; transform: translateY(6px) scale(.6) } 30%{ opacity:1; transform: translateY(0) scale(1) } 70%{ opacity:1 } 100%{ opacity:0; transform: translateY(-8px) scale(.9) } }

    @media (prefers-reduced-motion: reduce){
      #pix,#jaw,#owing,#lidL,#reticle,#vscan,#term,#brackets,#dataA,#dataB,#led,#pupils,#leadglow,#conduit,.think{ animation:none } .think{ opacity:.9 }
    }
  </style>

  <clipPath id="clipEyeL"><circle cx="200" cy="188" r="60"/></clipPath>
  <clipPath id="lens"><ellipse cx="312" cy="186" rx="59" ry="55"/></clipPath>
  <clipPath id="clipBody"><path d="M256 66 C 232 60 214 62 196 74 L 150 38 L 146 98 C 122 120 108 190 110 252 C 116 366 154 458 256 470 C 358 458 396 366 402 252 C 404 190 390 120 366 98 L 362 38 L 316 74 C 298 62 280 60 256 66 Z"/></clipPath>

  <g id="pix">
    <!-- soft contact shadow -->
    <ellipse cx="256" cy="496" rx="116" ry="14" fill="rgb(0,22,20)" opacity="0.18" filter="url(#soft)"/>

    <!-- feathered organic wing (left) -->
    <g id="owing">
      <path d="M138 250 C 96 250 70 300 78 352 C 84 392 108 420 140 430 C 128 400 126 360 138 330 C 120 356 108 388 112 410 C 96 380 96 336 116 306 C 104 330 100 360 106 384 C 96 352 104 300 138 278 Z"
            fill="url(#body)" stroke="rgb(0,22,20)" stroke-width="7" stroke-linejoin="round"/>
      <g stroke="rgb(0,120,107)" stroke-width="2" fill="none" opacity="0.5" stroke-linecap="round">
        <path d="M120 320 C 118 348 122 372 132 392"/>
        <path d="M104 330 C 100 356 102 378 110 396"/>
      </g>
    </g>

    <!-- feet: chunky three-toed amber talons with claw hooks -->
    <g stroke-linecap="round">
      <g fill="none" stroke="rgb(0,22,20)" stroke-width="15">
        <path d="M214 450 L196 484"/><path d="M214 450 L214 492"/><path d="M214 450 L232 484"/>
        <path d="M300 450 L282 484"/><path d="M300 450 L300 492"/><path d="M300 450 L318 484"/>
      </g>
      <g fill="none" stroke="url(#beakG)" stroke-width="9.5">
        <path d="M214 450 L196 484"/><path d="M214 450 L214 492"/><path d="M214 450 L232 484"/>
        <path d="M300 450 L282 484"/><path d="M300 450 L300 492"/><path d="M300 450 L318 484"/>
      </g>
      <g fill="none" stroke="rgb(0,22,20)" stroke-width="5">
        <path d="M196 484 l-4 8"/><path d="M214 492 l0 8"/><path d="M232 484 l4 8"/>
        <path d="M282 484 l-4 8"/><path d="M300 492 l0 8"/><path d="M318 484 l4 8"/>
      </g>
    </g>

    <!-- body + head with integrated ear tufts -->
    <path d="M256 66
             C 232 60 214 62 196 74 L 150 38 L 146 98
             C 122 120 108 190 110 252
             C 116 366 154 458 256 470
             C 358 458 396 366 402 252
             C 404 190 390 120 366 98 L 362 38 L 316 74
             C 298 62 280 60 256 66 Z"
          fill="url(#body)" stroke="rgb(0,22,20)" stroke-width="8" stroke-linejoin="round"/>
    <!-- body shading, clipped to the silhouette so it never bleeds past the edge -->
    <g clip-path="url(#clipBody)">
      <ellipse cx="230" cy="140" rx="110" ry="56" fill="rgb(214,250,240)" opacity="0.3" filter="url(#soft)"/>
      <path d="M140 360 C 172 452 344 452 372 360 C 360 430 300 456 256 456 C 212 456 152 430 140 360 Z" fill="rgb(0,120,107)" opacity="0.35" filter="url(#soft)"/>
    </g>
    <!-- owl facial disc -->
    <path d="M256 96 C 322 96 360 132 360 184 C 360 232 322 262 256 262 C 190 262 152 232 152 184 C 152 132 190 96 256 96 Z" fill="url(#disc)"/>
    <!-- inner ear shadow -->
    <path d="M196 74 L172 46 L164 94 Z" fill="rgb(0,120,107)" opacity="0.45"/>
    <path d="M316 74 L340 46 L348 94 Z" fill="rgb(0,120,107)" opacity="0.45"/>

    <!-- belly -->
    <path d="M256 268 C 322 268 346 320 342 372 C 338 422 300 450 256 450 C 212 450 174 422 170 372 C 166 320 190 268 256 268 Z"
          fill="url(#belly)" stroke="rgb(214,188,140)" stroke-width="3"/>
    <!-- belly ambient occlusion where it meets the chest -->
    <path d="M182 300 C 214 274 298 274 330 300" fill="none" stroke="rgb(214,188,140)" stroke-width="10" opacity="0.35" filter="url(#glow)"/>
    <!-- soft feather rows -->
    <g stroke="rgb(226,196,150)" stroke-width="2.4" fill="none" opacity="0.55" stroke-linecap="round">
      <path d="M198 330 Q 256 348 314 330"/>
      <path d="M204 360 Q 256 378 308 360"/>
      <path d="M212 390 Q 256 406 300 390"/>
      <path d="M222 418 Q 256 430 290 418"/>
    </g>

    <!-- ===================== eyes ===================== -->
    <g id="eyes">
      <!-- sclera (both eyes) -->
      <circle cx="200" cy="188" r="60" fill="url(#eyeW)" stroke="rgb(0,22,20)" stroke-width="7"/>
      <circle cx="312" cy="188" r="60" fill="url(#eyeW)" stroke="rgb(0,22,20)" stroke-width="7"/>
      <!-- pupils drift upward, pondering -->
      <g id="pupils">
        <circle cx="205" cy="178" r="35" fill="url(#pupil)"/>
        <circle cx="205" cy="178" r="35" fill="none" stroke="rgb(102,220,200)" stroke-width="2.5" opacity="0.6"/>
        <circle cx="194" cy="166" r="12" fill="rgb(255,255,255)" opacity="0.95"/>
        <circle cx="216" cy="190" r="6" fill="rgb(150,240,224)" opacity="0.9"/>
        <circle cx="309" cy="178" r="32" fill="url(#pupil)"/>
        <circle cx="300" cy="168" r="9" fill="rgb(255,255,255)" opacity="0.85"/>
      </g>
      <!-- brow crease -->
      <path d="M150 150 Q 200 132 250 150" fill="none" stroke="rgb(0,22,20)" stroke-width="5" stroke-linecap="round" opacity="0.5"/>
      <!-- left blink lid -->
      <g clip-path="url(#clipEyeL)">
        <circle id="lidL" cx="200" cy="60" r="63" fill="rgb(120,224,204)" stroke="rgb(0,148,132)" stroke-width="6"/>
      </g>

      <!-- cyber visor worn over the right eye -->
      <g id="visor">
        <!-- strap into the head -->
        <path d="M248 200 Q 322 180 410 178" fill="none" stroke="rgb(0,22,20)" stroke-width="24" stroke-linecap="round"/>
        <path d="M248 200 Q 322 180 410 178" fill="none" stroke="url(#metal)" stroke-width="16" stroke-linecap="round"/>
        <path d="M338 182 L398 178" stroke="rgb(102,220,200)" stroke-width="2" opacity="0.5"/>
        <!-- amber bevel frame -->
        <ellipse cx="312" cy="186" rx="62" ry="58" fill="none" stroke="url(#ring)" stroke-width="9"/>
        <ellipse cx="312" cy="186" rx="62" ry="58" fill="none" stroke="rgb(0,22,20)" stroke-width="2.5"/>
        <!-- glass -->
        <ellipse cx="312" cy="186" rx="57" ry="53" fill="url(#glass)"/>
        <g clip-path="url(#lens)">
          <!-- rotating reticle -->
          <g id="reticle" stroke="rgb(102,220,200)" fill="none" opacity="0.5">
            <circle cx="312" cy="186" r="44" stroke-width="1.3"/>
            <g stroke-width="2" stroke-linecap="round">
              <path d="M312 142 v8"/><path d="M312 222 v8" transform="translate(0,-8)"/>
              <path d="M268 186 h8"/><path d="M348 186 h8"/>
              <path d="M281 155 l6 6"/><path d="M343 217 l-6 -6"/>
              <path d="M343 155 l-6 6"/><path d="M281 217 l6 -6"/>
            </g>
          </g>
          <!-- crosshair -->
          <line x1="258" y1="186" x2="366" y2="186" stroke="rgb(102,220,200)" stroke-width="1" opacity="0.28"/>
          <line x1="312" y1="134" x2="312" y2="238" stroke="rgb(102,220,200)" stroke-width="1" opacity="0.28"/>
          <!-- pulsing target lock -->
          <g id="brackets" stroke="rgb(95,237,131)" stroke-width="2.6" fill="none" stroke-linecap="round">
            <path d="M292 168 h-8 v8"/><path d="M332 168 h8 v8"/>
            <path d="M292 204 h-8 v-8"/><path d="M332 204 h8 v-8"/>
          </g>
          <!-- scrolling readout -->
          <g id="term" font-family="'Courier New',ui-monospace,monospace" font-size="7" fill="rgb(95,237,131)" letter-spacing="0.3" opacity="0.9">
            <text x="330" y="150">PIX.OS 4.8</text>
            <text x="330" y="161">SCAN ENV</text>
            <text x="330" y="172">TGT LOCK</text>
            <text x="330" y="183">THRT 0x0</text>
            <text x="330" y="194">PIX.OS 4.8</text>
            <text x="330" y="205">SCAN ENV</text>
            <text x="330" y="216">TGT LOCK</text>
            <text x="330" y="227">THRT 0x0</text>
          </g>
          <!-- live-updating value -->
          <g font-family="'Courier New',ui-monospace,monospace" font-size="7" fill="rgb(150,240,224)">
            <text id="dataA" x="266" y="214">0x7F3A</text>
            <text id="dataB" x="266" y="214" opacity="0">0x91C2</text>
          </g>
          <!-- scan line with glow -->
          <rect id="vscan" x="256" y="184" width="112" height="3" rx="1.5" fill="rgb(150,240,224)" filter="url(#glow)"/>
          <!-- glass reflection -->
          <path d="M270 148 Q 300 138 336 150 Q 306 168 288 186 Q 274 166 270 148 Z" fill="url(#refl)"/>
        </g>
        <!-- frame LED + bolts -->
        <circle id="led" cx="312" cy="130" r="4.5" fill="rgb(95,237,131)" filter="url(#glow)"/>
        <circle cx="368" cy="196" r="3.5" fill="rgb(252,163,38)"/>
        <circle cx="258" cy="200" r="3.5" fill="rgb(252,163,38)"/>
      </g>
    </g>

    <!-- brow tuft between the eyes -->
    <path d="M256 140 L238 196 L256 208 L274 196 Z" fill="rgb(0,120,107)" opacity="0.45"/>

    <!-- beak -->
    <g id="beakgrp">
      <ellipse cx="256" cy="238" rx="15" ry="13" fill="rgb(60,22,4)"/>
      <path d="M234 210 L256 204 L278 210 L256 240 Z" fill="url(#beakG)" stroke="rgb(150,88,14)" stroke-width="4" stroke-linejoin="round"/>
      <path d="M244 212 L256 209 L260 220 Z" fill="rgb(255,232,180)" opacity="0.7"/>
      <path id="jaw" d="M240 236 L272 236 L256 260 Z" fill="rgb(196,116,18)" stroke="rgb(150,88,14)" stroke-width="4" stroke-linejoin="round"/>
    </g>

    <!-- ===================== cybernetic WING — folded, wingtip to the chin (contemplative) ===================== -->
    <g id="cyberwing">
      <!-- folded primary feathers hanging down-right behind the arm -->
      <path d="M402 340 Q 442 364 470 384" fill="none" stroke="rgb(0,22,20)" stroke-width="28" stroke-linecap="round"/>
      <path d="M402 340 Q 442 364 470 384" fill="none" stroke="url(#feather)" stroke-width="21" stroke-linecap="round"/>
      <path d="M398 348 Q 430 380 452 406" fill="none" stroke="rgb(0,22,20)" stroke-width="27" stroke-linecap="round"/>
      <path d="M398 348 Q 430 380 452 406" fill="none" stroke="url(#feather)" stroke-width="20" stroke-linecap="round"/>
      <path d="M392 354 Q 414 388 428 414" fill="none" stroke="rgb(0,22,20)" stroke-width="25" stroke-linecap="round"/>
      <path d="M392 354 Q 414 388 428 414" fill="none" stroke="url(#feather)" stroke-width="18" stroke-linecap="round"/>
      <g id="conduit" stroke="rgb(102,220,200)" stroke-width="2.2" fill="none" stroke-linecap="round" opacity="0.75" filter="url(#glow)">
        <path d="M404 342 Q 442 366 468 384"/>
        <path d="M400 350 Q 430 382 450 404"/>
        <path d="M394 356 Q 414 390 426 412"/>
      </g>
      <g fill="rgb(95,237,131)" stroke="rgb(0,22,20)" stroke-width="2">
        <circle cx="470" cy="385" r="4.5"/><circle cx="452" cy="407" r="4.5"/><circle cx="428" cy="415" r="4.5"/>
      </g>

      <!-- armature: shoulder housing -> elbow -> forearm reaching up to the chin -->
      <path d="M336 300 C 334 282 354 274 372 280 C 390 286 394 308 388 326 C 382 342 358 346 344 338 C 334 332 338 316 336 300 Z"
            fill="url(#metal)" stroke="rgb(0,22,20)" stroke-width="7" stroke-linejoin="round"/>
      <line x1="362" y1="302" x2="404" y2="342" stroke="rgb(0,22,20)" stroke-width="30" stroke-linecap="round"/>
      <line x1="362" y1="302" x2="404" y2="342" stroke="url(#metal)" stroke-width="23" stroke-linecap="round"/>
      <line x1="362" y1="302" x2="404" y2="342" stroke="rgb(102,220,200)" stroke-width="5" stroke-linecap="round" opacity="0.85"/>
      <line x1="404" y1="342" x2="300" y2="286" stroke="rgb(0,22,20)" stroke-width="28" stroke-linecap="round"/>
      <line x1="404" y1="342" x2="300" y2="286" stroke="url(#metal)" stroke-width="21" stroke-linecap="round"/>
      <line x1="404" y1="342" x2="300" y2="286" stroke="rgb(102,220,200)" stroke-width="5" stroke-linecap="round" opacity="0.85"/>
      <circle cx="362" cy="302" r="15" fill="url(#metal)" stroke="rgb(0,22,20)" stroke-width="5"/>
      <circle cx="362" cy="302" r="6" fill="rgb(102,220,200)"/>
      <circle cx="404" cy="342" r="16" fill="url(#metal)" stroke="rgb(0,22,20)" stroke-width="6"/>
      <circle cx="404" cy="342" r="9" fill="none" stroke="rgb(102,220,200)" stroke-width="4"/>
      <circle cx="404" cy="342" r="3" fill="rgb(252,163,38)"/>
      <circle cx="300" cy="286" r="12" fill="url(#metal)" stroke="rgb(0,22,20)" stroke-width="5"/>
      <circle cx="300" cy="286" r="6" fill="none" stroke="rgb(102,220,200)" stroke-width="3"/>
      <!-- curled wingtip claw resting under the beak / chin -->
      <path d="M298 280 Q 286 264 292 250" fill="none" stroke="rgb(0,22,20)" stroke-width="19" stroke-linecap="round"/>
      <path d="M298 280 Q 286 264 292 250" fill="none" stroke="url(#metal)" stroke-width="12" stroke-linecap="round"/>
      <path d="M306 284 Q 298 268 306 256" fill="none" stroke="rgb(0,22,20)" stroke-width="18" stroke-linecap="round"/>
      <path d="M306 284 Q 298 268 306 256" fill="none" stroke="url(#metal)" stroke-width="11" stroke-linecap="round"/>
      <circle id="leadglow" cx="292" cy="249" r="5.5" fill="rgb(95,237,131)" stroke="rgb(0,22,20)" stroke-width="2.5" filter="url(#glow)"/>
      <circle cx="306" cy="255" r="5" fill="rgb(95,237,131)" stroke="rgb(0,22,20)" stroke-width="2.5"/>
    </g>

    <!-- thought bubbles -->
    <g fill="rgb(102,220,200)" stroke="rgb(0,22,20)" stroke-width="3">
      <circle id="t1" class="think" cx="404" cy="150" r="9"/>
      <circle id="t2" class="think" cx="428" cy="116" r="13"/>
      <circle id="t3" class="think" cx="458" cy="78" r="18"/>
    </g>
  </g>
</svg>
